<?xml version="1.0" encoding="UTF-8" standalone="no"?>
<svg width="190" height="130.2464" viewBox="0 0 121.6 83.357695" version="1.1" id="svg1" xml:space="preserve" xmlns="http://www.w3.org/2000/svg" xmlns:svg="http://www.w3.org/2000/svg">
  <g id="g1" transform="translate(-3.2,-3.2000002)">
    <path fill="#000000" d="M 31.607851,3.2 V 40.727806 H 103.99651 V 3.2 Z M 3.2,8.399283 c 4.4129143,11.973339 13.810233,20.424524 24.105678,23.8273 v -23.8273 z m 105.2493,3.126683 V 34.044427 C 113.89928,31.737388 119.35078,27.629268 124.8,22.011654 119.33402,16.281012 113.97142,13.077878 108.44906,11.526728 Z M 50.982867,45.172726 C 47.896824,54.96069 42.373188,63.333391 35.592022,70.691635 l 65.491168,-5.13e-4 C 93.792255,63.321193 88.395609,54.929701 85.462476,45.172726 H 50.983121 Z M 24.789347,75.437788 V 86.5577 H 110.52851 V 75.437788 H 24.789601 Z" id="path1" style="stroke-width:0.253995"/>
    <path d="M 77.269131,31.989527 H 92.104694 M 77.269131,12.117897 h 7.417781 v 17.663671" id="path1-1" style="fill:none;stroke:#ffffff;stroke-width:7.00961;stroke-linecap:round;stroke-linejoin:round;stroke-opacity:1"/>
    <rect height="19.871632" width="14.835563" y="12.1179" x="45.125416" id="rect1" style="fill:none;stroke:#ffffff;stroke-width:7.00961;stroke-linecap:round;stroke-linejoin:round;stroke-opacity:1"/>
  </g>
</svg>