<?xml version="1.0" encoding="UTF-8" standalone="no"?>
<!-- https://www.svgrepo.com/svg/198086/hammer CC0 License SVG Repo -->
<svg
  fill="#000000"
  version="1.1"
  id="Layer_1"
  viewBox="0 0 422.88404 369.23808"
  xml:space="preserve"
  width="422.88403"
  height="369.23807"
  xmlns="http://www.w3.org/2000/svg"
  xmlns:svg="http://www.w3.org/2000/svg"><defs
  id="defs3" />
  <g id="g3" transform="matrix(-1,0,0,1,422.88478,0)">
    <g id="g2" style="display:inline">
      <rect
        x="286.06699"
        y="43.276001"
        transform="matrix(0.7071,0.7071,-0.7071,0.7071,126.6935,-206.0123)"
        width="51.916"
        height="13.301"
        id="rect1" />
      <path
        d="M 358.415,121.722 240.23,3.537 c -4.721,-4.716 -12.37,-4.716 -17.085,0 l -68.234,68.239 c -4.716,4.716 -4.716,12.365 0,17.085 l 118.185,118.185 c 4.721,4.716 12.37,4.716 17.085,0 l 68.234,-68.234 c 4.716,-4.72 4.716,-12.37 0,-17.09 z"
        id="path1" />
      <rect
        x="86.221001"
        y="117.086"
        transform="matrix(-0.7071,-0.7071,0.7071,-0.7071,14.8859,505.7115)"
        width="51.916"
        height="265.37399"
        id="rect2" />
      <path
        d="m 392.74869,311.8727 30.13609,-6.17246 -20.59448,-100.54931 11.57609,-2.37101 -4.09538,-19.99506 q -6.60125,1.35206 -12.25385,-3.3715 -5.74828,-4.70398 -6.84561,-10.0615 l -26.02227,5.32987 z"
        id="1" />
      <path
        d="m 126.92492,440.23451 v -84.12776 q 0,-25.42973 33.81516,-25.42973 33.17715,0 33.17715,25.24744 v 84.12776 q 0,11.3021 -9.38804,17.50003 -9.29689,6.19793 -23.9714,6.19793 -15.13024,0 -24.42713,-6.10679 -9.20574,-6.10678 -9.20574,-17.40888 z m 38.28132,1.36719 v -89.04964 q 0,-3.91928 -4.64845,-3.91928 -4.92188,0 -4.92188,3.91928 v 89.04964 q 0,3.91928 4.92188,3.91928 4.64845,0 4.64845,-3.91928 z"
        id="0"
        transform="rotate(-22.876883)" />
    </g>
  </g>
</svg>
