<?xml version="1.0" encoding="UTF-8" standalone="no"?>
<!-- Uploaded to: SVG Repo, www.svgrepo.com, Generator: SVG Repo Mixer Tools -->

<svg
   width="777.84033"
   height="680"
   viewBox="0 0 497.81781 435.2"
   version="1.1"
   id="svg1"
   sodipodi:docname="anvil-svgrepo-com.svg"
   xml:space="preserve"
   inkscape:export-filename="favicon.svg"
   inkscape:export-xdpi="96"
   inkscape:export-ydpi="96"
   xmlns:inkscape="http://www.inkscape.org/namespaces/inkscape"
   xmlns:sodipodi="http://sodipodi.sourceforge.net/DTD/sodipodi-0.dtd"
   xmlns="http://www.w3.org/2000/svg"
   xmlns:svg="http://www.w3.org/2000/svg"><defs
     id="defs1"><inkscape:path-effect
       effect="fillet_chamfer"
       id="path-effect6"
       is_visible="true"
       lpeversion="1"
       nodesatellites_param="F,0,0,1,0,0,0,1 @ F,0,0,1,0,0,0,1 @ F,0,0,1,0,0,0,1 @ F,0,0,1,0,0,0,1 @ F,0,0,1,0,0,0,1 @ F,0,0,1,0,0,0,1 @ F,0,0,1,0,0,0,1 @ F,0,0,1,0,0,0,1"
       radius="0"
       unit="px"
       method="auto"
       mode="F"
       chamfer_steps="1"
       flexible="false"
       use_knot_distance="true"
       apply_no_radius="true"
       apply_with_radius="true"
       only_selected="false"
       hide_knots="false" /></defs><sodipodi:namedview
     id="namedview1"
     pagecolor="#ffffff"
     bordercolor="#000000"
     borderopacity="0.25"
     inkscape:showpageshadow="2"
     inkscape:pageopacity="0.0"
     inkscape:pagecheckerboard="0"
     inkscape:deskcolor="#d1d1d1"
     inkscape:zoom="0.78754018"
     inkscape:cx="665.36288"
     inkscape:cy="502.1966"
     inkscape:window-width="1920"
     inkscape:window-height="1129"
     inkscape:window-x="-8"
     inkscape:window-y="-8"
     inkscape:window-maximized="1"
     inkscape:current-layer="layer2" /><g
     inkscape:groupmode="layer"
     id="layer2"
     inkscape:label="Layer 1"
     transform="translate(-5.6481786,-57.190887)"><path
       style="fill:#ffffff;fill-opacity:1;stroke:none;stroke-width:6.4;stroke-linecap:round;stroke-linejoin:bevel;stroke-dasharray:none;stroke-opacity:1;paint-order:normal"
       id="rect3"
       width="497.81778"
       height="382.6178"
       x="7.2734928"
       y="86.446533"
       sodipodi:type="rect"
       inkscape:path-effect="#path-effect6"
       d="M 25.964603,86.446533 H 486.40016 c 10.35488,0 18.69111,8.336236 18.69111,18.691107 v 345.23558 c 0,10.35488 -8.33623,18.69111 -18.69111,18.69111 H 25.964603 c -10.354875,0 -18.6911102,-8.33623 -18.6911102,-18.69111 V 105.13764 c 0,-10.354871 8.3362352,-18.691107 18.6911102,-18.691107 z"
       ry="18.691111"
       transform="matrix(1,0,0,1.1374275,-1.6253139,-41.135775)" /></g><path
     fill="#000000"
     d="M 123.03982,58.403113 V 206.15311 h 285 V 58.403113 Z m -111.843999,20.47 c 17.374,47.139997 54.372,80.412997 94.905999,93.809997 V 78.873113 Z m 414.374999,12.31 v 88.656997 c 21.457,-9.083 42.92,-25.257 64.374,-47.374 -21.52,-22.562 -42.633,-35.172997 -64.375,-41.279997 z m -226.25,132.469997 c -12.15,38.536 -33.897,71.5 -60.595,100.47 l 257.844,-0.002 c -28.705,-29.016 -49.952,-62.054 -61.5,-100.468 h -135.748 z m -103.125999,119.156 v 43.78 H 433.75682 v -43.78 H 96.195821 Z"
     id="path1"
     inkscape:label="path1"
     inkscape:export-filename="path1.svg"
     inkscape:export-xdpi="96"
     inkscape:export-ydpi="96" /><rect
     height="78.236214"
     width="58.408806"
     y="93.513596"
     x="176.25955"
     id="rect1"
     style="fill:none;stroke:#ffffff;stroke-width:27.5974;stroke-linecap:round;stroke-linejoin:round;stroke-opacity:1" /><path
     d="m 302.81196,171.7498 h 58.40881 M 302.81196,93.513593 h 29.2044 v 69.543297"
     id="path1-1"
     style="fill:none;stroke:#ffffff;stroke-width:27.5974;stroke-linecap:round;stroke-linejoin:round;stroke-opacity:1" /></svg>
